<?xml version="1.0" encoding="UTF-8"?><svg id="Livello_2" xmlns="http://www.w3.org/2000/svg" viewBox="0 0 561.35 561.34"><defs><style>.cls-1{fill:#f1b029;stroke-width:0px;}</style></defs><g id="Objects"><path class="cls-1" d="m532.01,155.43c-15.62,12.26-30.97,24.99-46.03,38.15,11.54,27.18,17.59,56.67,17.59,87.09,0,59.54-23.19,115.51-65.29,157.61-42.1,42.1-98.07,65.29-157.61,65.29s-115.52-23.19-157.62-65.29c-42.1-42.1-65.29-98.07-65.29-157.61s23.19-115.51,65.29-157.61c42.1-42.1,98.07-65.29,157.62-65.29,50.6,0,98.63,16.75,137.75,47.63,14.15-13.34,28.63-26.36,43.43-39.1C411.27,23.38,347.76,0,280.68,0c-74.97,0-145.46,29.2-198.46,82.2S0,205.7,0,280.67s29.2,145.45,82.21,198.46c53.01,53.01,123.49,82.2,198.46,82.2s145.45-29.2,198.46-82.2c53.02-53.02,82.21-123.49,82.21-198.46,0-44.2-10.15-86.83-29.34-125.24Z"/><path class="cls-1" d="m550,105.68c-119.83,86.75-223.24,197.15-304.45,321.86,0,0-50.64-75.93-108.35-119.97l34.33-42.93c29.3,26.48,54.9,56.72,76.31,89.81,72.23-111.3,162.82-211.13,267.06-294.67l35.1,45.89Z"/></g></svg>